<svg xmlns="http://www.w3.org/2000/svg" width="73" height="26" viewBox="0 0 73 26">
    <path fill="#575451" fill-rule="evenodd" d="M70.308 8.216c.639.536 1.126.843 1.46 1.507.31.611.31 1.168 0 1.672 0 0-2.931 2.437-7.995 3.46l-9.63 1.945-.484-2.303.208-.014 2.1.828.367-.93-2.205-.87-.218-.033-21.885 1.511-7.585 1.056.068.495-.203.457 2.4 1.06 1.437.618.227.096.884.36.361-.932-.657-.266-.993-.42-1.649-.72 5.814-.81 14.435-.996-3.014.649a1 1 0 0 0-.367.16l-.104.086-2.935 2.73.204.975-16.746 3.384c-9.321-.196-15.565-2.07-18.731-5.622l26.274-4.233 9.57-2.425L63.45 6.693c3.05-.259 5.336.25 6.857 1.523zM44.185 16.62l7.262-1.562a1 1 0 0 1 1.189.772l.488 2.325a1 1 0 0 1-.768 1.183l-7.273 1.564a1 1 0 0 1-.439-.004l-3.064-.718-.302-1.439 2.506-1.935a1 1 0 0 1 .401-.186zM5.267 6L16 14.095 4.545 16 2 6.476 5.267 6zm62.918 1.632v.002l.203.96a.5.5 0 0 1-.384.593l-3.906.845a.5.5 0 0 1-.595-.385l-.203-.96a.5.5 0 0 1 .383-.592l3.907-.846a.5.5 0 0 1 .595.383z"/>
</svg>
