<svg xmlns="http://www.w3.org/2000/svg" xmlns:xlink="http://www.w3.org/1999/xlink" width="120" height="120" viewBox="0 0 120 120">
    <defs>
        <path id="a" d="M66.107 32.7c.391-1.554.593-2.918.593-4.075C66.7 14.643 55.197 3.3 40.998 3.3 26.802 3.3 15.3 14.644 15.3 28.625c0 1.152.204 2.517.6 4.075h10.574a15.214 15.214 0 0 1-1.223-5.994c0-8.526 7-15.43 15.628-15.43 8.629 0 15.631 6.904 15.631 15.43 0 2.127-.435 4.152-1.223 5.994h10.82zm-52.88 0c-.348-1.514-.527-2.876-.527-4.075C12.7 13.2 25.374.7 40.998.7 56.625.7 69.3 13.2 69.3 28.625c0 1.203-.177 2.564-.52 4.075h5.198c4.048 0 7.322 3.346 7.322 7.455v12.31c0 4.11-3.274 7.456-7.322 7.456h-2.256v10.344L55.34 60.697a342.976 342.976 0 0 1-9.049 13.983 338.017 338.017 0 0 1-3.07 4.437c-.558.791-.956 1.349-1.17 1.645l-1.055 1.459-1.053-1.46c-.214-.298-.613-.858-1.17-1.65a343.177 343.177 0 0 1-3.07-4.451 345.927 345.927 0 0 1-9.49-14.74H8.022C3.974 59.92.7 56.575.7 52.467v-12.31c0-4.11 3.274-7.456 7.322-7.456h5.205zM29.26 59.92a347.709 347.709 0 0 0 8.596 13.28A340.59 340.59 0 0 0 41 77.756l.096-.136a335.428 335.428 0 0 0 3.047-4.403 342.725 342.725 0 0 0 8.624-13.296H29.26zM52.404 32.7a12.615 12.615 0 0 0 1.506-5.994c0-7.081-5.83-12.83-13.03-12.83-7.2 0-13.029 5.748-13.029 12.83 0 2.165.545 4.205 1.506 5.994h23.047zm16.718 24.62h4.856c2.6 0 4.722-2.17 4.722-4.854v-12.31c0-2.686-2.123-4.856-4.722-4.856H8.022c-2.6 0-4.722 2.17-4.722 4.855v12.31c0 2.686 2.123 4.856 4.722 4.856h46.693l14.407 8.414v-8.414zM20 43.3c-1.49 0-2.7 1.21-2.7 2.7 0 1.49 1.21 2.7 2.7 2.7 1.49 0 2.7-1.21 2.7-2.7 0-1.49-1.21-2.7-2.7-2.7zm0-2.6c2.926 0 5.3 2.374 5.3 5.3 0 2.926-2.374 5.3-5.3 5.3a5.302 5.302 0 0 1-5.3-5.3c0-2.926 2.374-5.3 5.3-5.3zm14 2.6c-1.49 0-2.7 1.21-2.7 2.7 0 1.49 1.21 2.7 2.7 2.7 1.49 0 2.7-1.21 2.7-2.7 0-1.49-1.21-2.7-2.7-2.7zm0-2.6c2.926 0 5.3 2.374 5.3 5.3 0 2.926-2.374 5.3-5.3 5.3a5.302 5.302 0 0 1-5.3-5.3c0-2.926 2.374-5.3 5.3-5.3zm14 2.6c-1.49 0-2.7 1.21-2.7 2.7 0 1.49 1.21 2.7 2.7 2.7 1.49 0 2.7-1.21 2.7-2.7 0-1.49-1.21-2.7-2.7-2.7zm0-2.6c2.926 0 5.3 2.374 5.3 5.3 0 2.926-2.374 5.3-5.3 5.3a5.302 5.302 0 0 1-5.3-5.3c0-2.926 2.374-5.3 5.3-5.3zm14 2.6c-1.49 0-2.7 1.21-2.7 2.7 0 1.49 1.21 2.7 2.7 2.7 1.49 0 2.7-1.21 2.7-2.7 0-1.49-1.21-2.7-2.7-2.7zm0-2.6c2.926 0 5.3 2.374 5.3 5.3 0 2.926-2.374 5.3-5.3 5.3a5.302 5.302 0 0 1-5.3-5.3c0-2.926 2.374-5.3 5.3-5.3z"/>
    </defs>
    <g fill="none" fill-rule="evenodd">
        <circle cx="60" cy="60" r="60" fill="#F3F3F3"/>
        <g transform="translate(20 20)">
            <mask id="b" fill="#fff">
                <use xlink:href="#a"/>
            </mask>
            <use fill="#00558B" fill-rule="nonzero" xlink:href="#a"/>
            <g fill="#00558B" mask="url(#b)">
                <path d="M-4-2h88v86H-4z"/>
            </g>
        </g>
    </g>
</svg>
