<svg xmlns="http://www.w3.org/2000/svg" xmlns:xlink="http://www.w3.org/1999/xlink" width="120" height="120" viewBox="0 0 120 120">
    <defs>
        <path id="a" d="M57.74 34.215c.783.314.815.432.875 1.168v11.714s.212-.058.699.345l6.826 6.612c.218.247.344.538.37.868v5.883c-.078.972-.328 1.156-1.266 1.227h-1.836v1.48h3.325c1.004.076 1.193.318 1.267 1.227v6.054c-.06.74-.3.864-.7 1.098l-4.144 2.006c0 2.26.361 4.794-.248 6.184-1.034 2.36-4.957 1.898-8.313 1.854-1.632-.06-3.033-1.435-3.055-3.028v-2.045H16.52c0 1.065.158 2.16-.191 3.081-.93 2.45-4.947 2.037-8.371 1.992-1.632-.06-3.036-1.444-3.056-3.029v-4.98L.53 71.791c-.283-.232-.476-.352-.529-.998v-6.054c.079-.972.329-1.156 1.267-1.227h3.636v-1.48H3.068c-1.004-.076-1.193-.318-1.267-1.227v-5.883c.026-.324.15-.617.371-.868L9 47.442c.202-.167.435-.284.698-.345V35.383c.078-.973.328-1.156 1.267-1.228h1.08V23.088h-5.39c-1.284-.098-1.738-2.323 0-2.455h5.39V5.366l-2.89-3.43C8.4.884 9.998-.748 11.116.384l3.176 3.768c.14.193.248.254.285.777v4.935L18.37 5.7c.55-.524.95-.415.95-.415h29.672c.483.033.95.415.95.415l3.791 4.164V4.929c.017-.236-.027-.349.286-.777L57.195.384c.913-.926 2.884.265 1.963 1.552l-2.89 3.43v15.267h5.541c1.285.098 1.74 2.322 0 2.455h-5.54v11.067l1.277.015.194.045zM57.3 76.733c-.344.135-.445.12-.567.13h-2.66c0 1.114-.241 2.587.585 2.618 2.524.032 5.946.584 5.962-.59v-3.766l-3.32 1.608zM7.438 78.892c.013 1.079 3.464.74 5.995.587a.61.61 0 0 0 .553-.587v-2.03l-2.916-.014c-.19-.044-.19-.044-.371-.115l-3.26-1.58v3.739zM2.535 65.967v4.067c1.404.68 2.874 1.246 4.213 2.04l4.817 2.333h44.87l9.03-4.373v-4.067H2.535zm35.34.284c1.25.291 1.374 2.32-.2 2.44h-7.82c-1.344-.102-1.739-2.323 0-2.455h7.82l.2.015zm-30.437-2.74h8.496v-1.479H7.438v1.48zm11.031 0h31.375v-26.9H18.469v26.9zm33.91 0h8.495v-1.479h-8.495v1.48zm-5.444-3.919c1.25.291 1.375 2.32-.199 2.44H20.795c-1.318-.1-1.612-2.332 0-2.455h25.941l.199.015zm17.041-.015V55.43l-6.083-5.893h-5.514v10.04h11.597zm-48.042-10.04H10.42L4.336 55.43v4.147h11.598v-10.04zm29.295-5.112c.898.209 1.002.387 1.069 1.212V57.78c-.106 1.302-2.398 1.684-2.535 0V45.637c.084-1.034.364-1.296 1.466-1.212zm-7.6 0c.899.209 1.003.387 1.07 1.212V57.78c-.104 1.278-2.382 1.883-2.535 0V45.637c.084-1.034.364-1.296 1.466-1.212zm-7.597 0c.898.209 1.002.387 1.069 1.212V57.78c-.106 1.302-2.398 1.684-2.535 0V45.637c.084-1.034.364-1.296 1.466-1.212zm-7.6 0c.899.209 1.003.387 1.07 1.212V57.78c-.101 1.244-2.398 1.684-2.535 0V45.637c.084-1.034.364-1.296 1.466-1.212zM62.34 55.658c1.226.285 1.454 2.314-.198 2.44h-7.14c-1.344-.103-1.74-2.323 0-2.455h7.14l.198.015zm-48.83 0c1.268.295 1.27 2.328-.198 2.44h-7.14c-1.344-.103-1.74-2.323 0-2.455h7.14l.198.015zm38.87-8.576h3.702V36.61h-3.702v10.472zm-40.148 0h3.703V36.61h-3.703v10.472zm34.704-5.497c1.225.285 1.453 2.314-.199 2.44H20.795c-1.32-.1-1.944-2.307 0-2.455h25.941l.199.015zM37.875 38c1.25.291 1.374 2.32-.2 2.44h-7.82c-1.32-.1-1.944-2.307 0-2.455h7.82l.2.015zm14.504-3.844h1.354V23.088H52.38v11.067zm-33.91 0h31.375V23.088H18.469v11.067zm-3.89 0h1.355V23.088h-1.356v11.067zm-5.76-10.482c.898.209 1.002.387 1.069 1.212V32.7c-.08.973-.329 1.156-1.267 1.228H4.388c-1.004-.077-1.194-.319-1.268-1.228v-7.815c.08-.972.329-1.156 1.268-1.227H8.62l.198.015zm55.305 0c.898.209 1.002.387 1.069 1.212V32.7c-.08.973-.33 1.156-1.268 1.228h-4.233c-1.004-.077-1.193-.319-1.267-1.228v-7.815c.08-.972.329-1.156 1.267-1.227h4.233l.199.015zm-58.47 7.8h1.7v-5.36h-1.7v5.36zm55.306 0h1.698v-5.36H60.96v5.36zM14.578 13.576v7.057h1.356c0-1.432.022-3.421.022-3.421l1.269-6.542-2.647 2.906zm3.891 7.057h31.375v-1.93H18.469v1.93zm33.888-3.421c.01.086.022.226.022.226v3.195h1.354v-7.057l-2.645-2.905 1.269 6.54zM47.94 7.74H20.372l-1.65 8.508h30.869L47.94 7.74zm-10.067.86c1.252.29 1.375 2.32-.198 2.44h-7.82c-1.318-.1-1.613-2.333 0-2.455h7.82l.198.015z"/>
        <path id="c" d="M15 28.5C7.544 28.5 1.5 22.456 1.5 15S7.544 1.5 15 1.5 28.5 7.544 28.5 15 22.456 28.5 15 28.5zm0-2.5c6.075 0 11-4.925 11-11S21.075 4 15 4 4 8.925 4 15s4.925 11 11 11zm1-11l-1.293 1.207-3.293 3.207L10 18l4-4V7h2v8z"/>
    </defs>
    <g fill="none" fill-rule="evenodd">
        <circle cx="60" cy="60" r="60" fill="#F3F3F3"/>
        <g transform="translate(26 20)">
            <mask id="b" fill="#fff">
                <use xlink:href="#a"/>
            </mask>
            <use fill="#8F8F8F" xlink:href="#a"/>
            <g fill="#00558B" mask="url(#b)">
                <path d="M-10-2h88v86h-88z"/>
            </g>
        </g>
        <g transform="translate(88 2)">
            <mask id="d" fill="#fff">
                <use xlink:href="#c"/>
            </mask>
            <use fill="#000" xlink:href="#c"/>
            <g fill="#00558B" mask="url(#d)">
                <path d="M-2-2h34v34H-2z"/>
            </g>
        </g>
    </g>
</svg>
