<svg xmlns="http://www.w3.org/2000/svg" xmlns:xlink="http://www.w3.org/1999/xlink" width="120" height="120" viewBox="0 0 120 120">
    <defs>
        <path id="a" d="M10.7 52.815V26.358a1.3 1.3 0 0 1 2.6 0v26.457a7.3 7.3 0 1 1-2.6 0zm.92 2.5a4.7 4.7 0 1 0 .76 0 1.3 1.3 0 0 1-.76 0zm5.078-3.459l-1.298-.751V6a3.4 3.4 0 1 0-6.8 0v45.105l-1.298.751a9.4 9.4 0 1 0 9.396 0zM24 60c0 6.627-5.373 12-12 12S0 66.627 0 60c0-4.442 2.413-8.32 6-10.395V6a6 6 0 1 1 12 0v43.605c3.587 2.075 6 5.953 6 10.395z"/>
    </defs>
    <g fill="none" fill-rule="evenodd">
        <g transform="translate(48 24)">
            <mask id="b" fill="#fff">
                <use xlink:href="#a"/>
            </mask>
            <use fill="#979797" fill-rule="nonzero" xlink:href="#a"/>
            <g fill="#979797" mask="url(#b)">
                <path d="M-40-14H64V88H-40z"/>
            </g>
        </g>
    </g>
</svg>
