<?xml version="1.0" encoding="UTF-8"?>
<svg width="120px" height="120px" viewBox="0 0 120 120" version="1.1" xmlns="http://www.w3.org/2000/svg" xmlns:xlink="http://www.w3.org/1999/xlink">
    <!-- Generator: Sketch 54.1 (76490) - https://sketchapp.com -->
    <title>icon-dropoff</title>
    <desc>Created with Sketch.</desc>
    <defs>
        <circle id="path-1" cx="60" cy="60" r="60"></circle>
        <path d="M85.106783,58.3532837 C85.106783,63.2915471 81.1463237,67.3 76.251578,67.3 C71.3578434,67.3 67.3963729,63.2910675 67.3963729,58.3532837 C67.3963729,53.4155945 71.3578642,49.4066828 76.251578,49.4066828 C81.146303,49.4066828 85.106783,53.4151149 85.106783,58.3532837 Z M82.506783,58.3532837 C82.506783,54.8440975 79.7033117,52.0066828 76.251578,52.0066828 C72.8007755,52.0066828 69.9963729,54.844655 69.9963729,58.3532837 C69.9963729,61.8620129 72.8007609,64.7 76.251578,64.7 C79.7033263,64.7 82.506783,61.8625704 82.506783,58.3532837 Z M79.9283143,58.3532837 C79.9283143,60.3964395 78.2865049,62.0587715 76.251578,62.0587715 C74.2177495,62.0587715 72.5748416,60.3960445 72.5748416,58.3532837 C72.5748416,56.3106109 74.2177769,54.6479113 76.251578,54.6479113 C78.2864775,54.6479113 79.9283143,56.310216 79.9283143,58.3532837 Z M77.3283143,58.3532837 C77.3283143,57.7389952 76.8432771,57.2479113 76.251578,57.2479113 C75.6607229,57.2479113 75.1748416,57.7396377 75.1748416,58.3532837 C75.1748416,58.9670368 75.660715,59.4587715 76.251578,59.4587715 C76.843285,59.4587715 77.3283143,58.9676793 77.3283143,58.3532837 Z M104.591319,58.3532837 C104.591319,63.2915102 100.630782,67.3 95.7361142,67.3 C90.8423641,67.3 86.8807951,63.2910514 86.8807951,58.3532837 C86.8807951,53.4156105 90.8423848,49.4066828 95.7361142,49.4066828 C100.630761,49.4066828 104.591319,53.4151518 104.591319,58.3532837 Z M101.991319,58.3532837 C101.991319,54.8441404 99.1877763,52.0066828 95.7361142,52.0066828 C92.2852838,52.0066828 89.4807951,54.8446831 89.4807951,58.3532837 C89.4807951,61.8619849 92.2852692,64.7 95.7361142,64.7 C99.1877909,64.7 101.991319,61.8625275 101.991319,58.3532837 Z M99.4127365,58.3532837 C99.4127365,60.3960475 97.7699405,62.0587715 95.7361142,62.0587715 C93.7022012,62.0587715 92.0593779,60.3960748 92.0593779,58.3532837 C92.0593779,56.3105806 93.7022287,54.6479113 95.7361142,54.6479113 C97.7699131,54.6479113 99.4127365,56.310608 99.4127365,58.3532837 Z M96.8127365,58.3532837 C96.8127365,57.7395966 96.326928,57.2479113 95.7361142,57.2479113 C95.1451942,57.2479113 94.6593779,57.7395883 94.6593779,58.3532837 C94.6593779,58.9670862 95.1451864,59.4587715 95.7361142,59.4587715 C96.3269359,59.4587715 96.8127365,58.9670779 96.8127365,58.3532837 Z M117.3,49.1902298 L117.3,60.8678074 C117.3,62.6011407 114.7,62.6011407 114.7,60.8678074 L114.7,49.1902298 C114.7,47.4568965 117.3,47.4568965 117.3,49.1902298 Z M114.7,41.4253512 L114.7,3.3 L39.5465068,3.3 L39.5465068,41.4253512 L114.7,41.4253512 Z M116,44.0253512 L38.2465068,44.0253512 C37.5285366,44.0253512 36.9465068,43.4433213 36.9465068,42.7253512 L36.9465068,2 C36.9465068,1.28202983 37.5285366,0.7 38.2465068,0.7 L116,0.7 C116.71797,0.7 117.3,1.28202983 117.3,2 L117.3,42.7253512 C117.3,43.4433213 116.71797,44.0253512 116,44.0253512 Z M117.3,42.7253512 L117.3,49.1887282 C117.3,50.9220616 114.7,50.9220616 114.7,49.1887282 L114.7,42.7253512 C114.7,40.9920178 117.3,40.9920178 117.3,42.7253512 Z M77.551578,42.7253512 L77.551578,49.1887282 C77.551578,50.9220616 74.951578,50.9220616 74.951578,49.1887282 L74.951578,42.7253512 C74.951578,40.9920178 77.551578,40.9920178 77.551578,42.7253512 Z M44.0062256,42.7253512 L44.0062256,49.1887282 C44.0062256,50.9220616 41.4062256,50.9220616 41.4062256,49.1887282 L41.4062256,42.7253512 C41.4062256,40.9920178 44.0062256,40.9920178 44.0062256,42.7253512 Z M116,51.8419708 C116.71797,51.8419708 117.3,52.4240006 117.3,53.1419708 L117.3,60.8559105 C117.3,61.5738806 116.71797,62.1559105 116,62.1559105 L108.221912,62.1559105 C107.503942,62.1559105 106.921912,61.5738806 106.921912,60.8559105 L106.921912,53.1419708 C106.921912,52.4240006 107.503942,51.8419708 108.221912,51.8419708 L116,51.8419708 Z M109.521912,54.4419708 L109.521912,59.5559105 L114.7,59.5559105 L114.7,54.4419708 L109.521912,54.4419708 Z M116,47.8887282 L116,50.4887282 L85.1737545,50.4887282 C84.3439261,50.3771241 83.9290118,49.9437908 83.9290118,49.1887282 C83.9290118,48.4336657 84.3439261,48.0003324 85.1737545,47.8887282 L116,47.8887282 Z M76.251578,50.4887282 L38,50.4887282 C36.2666667,50.4887282 36.2666667,47.8887282 38,47.8887282 L76.251578,47.8887282 C77.9849113,47.8887282 77.9849113,50.4887282 76.251578,50.4887282 Z M66.8562132,50.1023468 L58.6439991,58.4152907 C57.425841,59.6483905 55.5761912,57.8211534 56.7943493,56.5880535 L65.0065635,48.2751097 C66.2247216,47.0420098 68.0743714,48.869247 66.8562132,50.1023468 Z M14.0823113,29.3448498 L30,29.3448498 L30,20.8482498 L14.0823113,20.8482498 C13.3643411,20.8482498 12.7823113,20.26622 12.7823113,19.5482498 L12.7823113,16.9459612 L3.84933037,25.0966 L12.7823113,33.2472388 L12.7823113,30.6448498 C12.7823113,29.9268796 13.3643411,29.3448498 14.0823113,29.3448498 Z M31.3,31.9448498 L15.3823113,31.9448498 L15.3823113,36.1932 C15.3823113,37.3229085 14.0406191,37.9149732 13.2060872,37.1535288 L1.04437592,26.0569288 C0.479341361,25.5413794 0.479341361,24.6518206 1.04437592,24.1362712 L13.2060872,13.0396712 C14.0406191,12.2782268 15.3823113,12.8702915 15.3823113,14 L15.3823113,18.2482498 L31.3,18.2482498 C32.0179702,18.2482498 32.6,18.8302796 32.6,19.5482498 L32.6,30.6448498 C32.6,31.36282 32.0179702,31.9448498 31.3,31.9448498 Z" id="path-3"></path>
    </defs>
    <g id="Page-1" stroke="none" stroke-width="1" fill="none" fill-rule="evenodd">
        <g id="2019-Icons-Copy-2" transform="translate(-778.000000, -67.000000)">
            <g id="icon-dropoff" transform="translate(778.000000, 67.000000)">
                <circle id="Mask" fill="#F3F3F3" cx="60" cy="60" r="60"></circle>
                <g id="illustrations/icons/shape/late">
                    <mask id="mask-2" fill="white">
                        <use xlink:href="#path-1"></use>
                    </mask>
                    <g id="Oval"></g>
                    <g id="Group" mask="url(#mask-2)">
                        <g transform="translate(12.000000, 32.000000)">
                            <mask id="mask-4" fill="white">
                                <use xlink:href="#path-3"></use>
                            </mask>
                            <use id="Combined-Shape" stroke="none" fill="#00558B" fill-rule="nonzero" xlink:href="#path-3"></use>
                        </g>
                    </g>
                </g>
            </g>
        </g>
    </g>
</svg>