<svg xmlns="http://www.w3.org/2000/svg" width="120" height="120" viewBox="0 0 120 120">
    <g fill="none" fill-rule="evenodd">
        <circle cx="60" cy="60" r="60" fill="#F3F3F3"/>
        <path fill="#00558B" d="M50.433 37.835H62.43v9.57h6.359l8.624 20.329h7.208V57.57h14.738V46.702h88.413V57.57h6.539v5.236h12.769l-18.66 22.992v2.4l3.448 3.448a56.931 56.931 0 0 0 8.584-1.444c4.046-1.01 8.03-2.32 12.144-2.924 3.146-.462 6.328-.63 9.506-.647 0 0 .002-.085.92.097 0 0 1.026.009.696 1.676l-.276.417-.418.279s-3.834.085-6.944.357c-6.858.6-13.386 3.268-20.155 4.263-10.036 1.474-20.26.308-30.056-2.406-10.074-2.773-20.894-3.013-30.888-.519-4.044 1.01-8.026 2.32-12.142 2.924-10.035 1.475-20.258.309-30.053-2.405-10.072-2.772-20.892-3.013-30.886-.519-4.046 1.01-8.03 2.32-12.142 2.924-10.035 1.475-20.257.309-30.051-2.405-5.212-1.435-10.609-2.085-16.004-2.115l-.912-.1c-.413-.276-.418-.28-.694-.695L2 87.913c.098-.488.1-.494.377-.908l.417-.277c1.71-.339 3.586-.069 5.431.043 7.523.455 14.761 3.34 22.035 4.408 1.083.159 2.17.293 3.26.4L13.987 73.088v-5.354h60.638l-7.535-17.761H30.415v15.462c-.098.488-.1.494-.377.908l-.416.279-.491.097-.492-.097-.416-.279-.279-.416-.097-.492v-18.03h32.015v-7.003H34.276v5.449c-.097.488-.1.494-.376.908l-.417.278-.491.098-.491-.098-.417-.278-.278-.417-.098-.491v-8.016h16.157v-5.267h-1.839v3.49c-.097.488-.1.494-.376.908l-.417.278c-.488.097-.494.097-.982 0l-.417-.278c-.276-.414-.279-.42-.376-.908V30h6.975v7.835zM153.22 86.626c3.897.213 7.767.78 11.54 1.736 3.878.982 7.701 2.235 11.665 2.817.462.068.925.131 1.388.19h10.147l-2.106-2.107v-2.636h-32.634zm48.47-21.252h-35.502l-4.004 4.928H16.554v1.681l20.48 19.386h11.124a56.05 56.05 0 0 0 6.126-1.167c4.045-1.01 8.029-2.32 12.142-2.924 3.361-.494 6.784-.651 10.152-.647 5.245.017 10.492.53 15.557 1.849 3.722.969 7.406 2.14 11.205 2.699.462.068.925.131 1.388.19h16.51a56.05 56.05 0 0 0 6.127-1.167c4.045-1.01 8.029-2.32 12.142-2.924a70.75 70.75 0 0 1 6.496-.652H37.446c-.835-.166-.997-.51-1.186-.793l-.097-.49c.097-.489.1-.495.376-.909l.416-.278.491-.098h149.08l15.163-18.684zm-114.5 2.36h24.025v-7.596H87.189v7.596zm26.593 0h24.025v-7.596h-24.025v7.596zm50.618-7.596h-24.025v7.596h20.586l3.44-4.232v-3.364zm2.568 2.668h24.775v-2.668h-24.775v2.668zM48.732 55.922v3.482l-.097.491c-.277.414-.282.419-.695.695l-.492.098-.491-.098-.416-.278-.279-.417-.098-.491v-6.05h7.333v6.05l-.098.491-.278.417-.417.278-.491.098-.492-.098-.416-.278-.278-.417-.098-.491v-3.482h-2.197zm12.384 0v3.482l-.098.491c-.276.414-.281.419-.695.695l-.491.098-.491-.098-.417-.278-.278-.417-.098-.491v-6.05h7.333v6.05l-.097.491-.279.417-.416.278-.491.098-.492-.098-.416-.278-.279-.417-.097-.491v-3.482h-2.198zm-24.769 0v3.482l-.097.491c-.277.414-.281.419-.695.695l-.491.098-.492-.098-.416-.278-.279-.417-.097-.491v-6.05h7.333v6.05l-.097.491-.279.417-.416.278-.492.098-.491-.098-.416-.278-.279-.417-.098-.491v-3.482h-2.198zm65.58 1.648h26.723v-8.3h-26.723v8.3zm29.291 0h25.65v-8.3h-25.65v8.3zm28.219 0h25.768v-8.3h-25.768v8.3z"/>
    </g>
</svg>
