<svg xmlns="http://www.w3.org/2000/svg" xmlns:xlink="http://www.w3.org/1999/xlink" width="120" height="120" viewBox="0 0 120 120">
    <defs>
        <circle id="a" cx="60" cy="60" r="60"/>
    </defs>
    <g fill="none" fill-rule="evenodd">
        <circle cx="60" cy="60" r="60" fill="#F3F3F3"/>
        <mask id="b" fill="#fff">
            <use xlink:href="#a"/>
        </mask>
        <path fill="#00558B" d="M59.235 77.298a6.388 6.388 0 0 1 5.341 3.139l.07-.706.281-.421.422-.282.498-.1h11.672c.337.068.722.086 1.2.803 0 0 1.766-1.956 3.888-2.336 3.255-.582 6.775 1.872 7.284 5.204.634 4.151-3.875 8.39-8.256 6.847-1.997-.703-3.56-2.466-4.03-4.563l-12.336-.034c-.098.465-.17.666-.298.992-1.197 3.036-5.033 4.738-8.108 3.525-3.458-1.364-5.06-6.185-2.848-9.375 1.157-1.67 3.157-2.706 5.22-2.693zm-92.833 0a6.386 6.386 0 0 1 5.016 2.631l.337-.62c.419-.28.425-.282.92-.38h11.67c.494.098.5.1.92.38l.281.422s-.031.595.15.322c1.922-2.81 6.242-3.57 8.984-1.467 2.472 1.895 3.149 5.775 1.423 8.396-1.881 2.859-6.309 3.666-9.084 1.484a6.352 6.352 0 0 1-2.248-3.583l-12.335-.034c-.098.465-.17.666-.298.992-1.197 3.036-5.033 4.738-8.109 3.525-3.458-1.363-5.059-6.185-2.848-9.375 1.158-1.67 3.157-2.706 5.221-2.693zm117.263 2.6a3.749 3.749 0 0 0-3.334 2.271l-.032.08h3.419c.494.098.5.1.919.38l.282.422c.098.494.098.501 0 .995l-.282.422c-.419.28-.425.283-.92.38H80.3c.77 1.989 3.454 2.95 5.305 1.824 2.55-1.55 2.032-6.701-1.844-6.774h-.095zm-92.834 0c-1.466.027-2.837.987-3.365 2.35h3.325c.494.1.5.102.92.382l.281.421.099.498-.099.497-.282.422-.421.282-.498.099h-3.325c.769 1.986 3.453 2.95 5.305 1.823 2.553-1.551 1.954-6.702-1.845-6.774h-.095zm-24.557 0c-2.532.048-4.519 3.231-3.053 5.58 1.41 2.258 5.436 2.153 6.513-.63h-3.506c-.845-.167-1.01-.515-1.2-.802l-.1-.497.1-.498.281-.421c.419-.28.425-.283.92-.381h3.505a3.719 3.719 0 0 0-3.46-2.351zm92.833 0c-2.722.051-4.751 3.799-2.655 6.105 1.645 1.81 5.144 1.355 6.115-1.154h-3.412c-.338-.067-.722-.086-1.201-.803l-.099-.497c.098-.494.1-.5.38-.92l.423-.281.497-.1h3.412a3.719 3.719 0 0 0-3.46-2.35zm33.117-.588l.282.421.099.498v1.138h1.32v-4.3H54.728l.15.226.1.498c-.099.494-.101.5-.381.92l-5.258 5.256H.213l-5.258-5.257c-.824-1.234-.13-1.642-.13-1.642h-38.75v4.299h1.319v-1.138l.099-.498.282-.421c.419-.28.425-.283.919-.381l.498.099c.418.28.423.284.703.703l.099.498v3.738h-6.52V79.45h-.874v.953l-.099.497-.282.422-.422.282-.497.099-.497-.1-.422-.281-.282-.422-.099-.497v-4.504l.099-.497.282-.422c.419-.28.425-.282.919-.38l.497.098.422.282.282.422c.142.714.099.72.099 1.448h.875v-2.382h9.424V46H86.975v28.468h9.55v2.382h.875v-.95l.099-.498c.479-.717.863-.735 1.201-.803l.497.1c.42.28.424.284.704.703l.099.497v4.504l-.099.497c-.191.286-.355.634-1.201.803l-.497-.1c-.42-.28-.424-.284-.704-.703l-.099-.497v-.953h-.876v4.517h-6.52v-3.738l.1-.498c.191-.286.355-.634 1.2-.802l.498.099.422.282zm-27.281 1.876c.169.422.326 1.063.326 1.063h12.328c.055-.258.066-.284.102-.41.042-.15.117-.37.117-.37l-.297.06H65.847c-.494-.099-.5-.101-.92-.381l.016.038zm-80.1.244l-.498.099h-11.67s-.575-.781-.246.685l12.335.035a5.12 5.12 0 0 1 .285-.957l-.206.138zm12.147-4.362l4.3 4.299h46.973l4.3-4.3H-3.01zm-31.49-2.6H84.374V48.6H-34.501v25.868zM82.24 49.345c.419.28.424.284.704.703l.099.498-.1.497-.281.422-.422.282-.497.099H78.78V73.26H73.14l-.498-.1c-.716-.478-.735-.863-.802-1.2l.099-.498c.28-.419.285-.423.703-.703l.498-.1h3.042V49.247h5.563l.497.099zm-8.716 0c.419.28.424.284.703.703l.1.498c-.068.337-.086.722-.803 1.2l-.498.1h-2.963V73.26h-5.642l-.498-.1c-.419-.28-.424-.284-.703-.703l-.1-.497.1-.498.281-.422.422-.281.498-.1h3.042V49.247h5.563l.498.099zm-8.717 0c.418.28.423.284.703.703l.1.498c-.169.845-.517 1.01-.803 1.2l-.498.1h-2.962V73.26h-5.644l-.497-.1c-.42-.28-.424-.284-.704-.703l-.099-.497.1-.498.281-.422.422-.281.497-.1h3.044V49.247h5.562l.498.099zm-8.718 0c.419.28.424.284.704.703l.099.498c-.067.337-.086.722-.803 1.2l-.497.1H52.63V73.26h-5.644l-.498-.1c-.716-.478-.735-.863-.802-1.2l.099-.498c.28-.419.285-.423.703-.703l.498-.1h3.044V49.247h5.562l.497.099zm-8.717 0c.419.28.424.284.703.703l.1.498c-.068.337-.086.722-.803 1.2l-.498.1h-2.962V73.26h-5.642l-.498-.1c-.419-.28-.423-.284-.703-.703l-.1-.497.1-.498.282-.422.421-.281.498-.1h3.042V49.247h5.562l.498.099zm-8.716 0c.419.28.423.284.703.703l.1.498c-.068.337-.086.722-.803 1.2l-.498.1h-2.963V73.26h-5.643l-.497-.1c-.419-.28-.424-.284-.704-.703l-.099-.497.1-.498.281-.422.422-.281.497-.1h3.043V49.247h5.563l.498.099zm-8.718 0c.42.28.424.284.704.703l.099.498c-.067.337-.086.722-.803 1.2l-.497.1h-2.963V73.26h-5.643l-.497-.1c-.717-.478-.736-.863-.803-1.2l.099-.498c.28-.419.285-.423.704-.703l.497-.1h3.043V49.247h5.563l.497.099zm-8.717 0c.419.28.424.284.704.703l.099.498-.1.497-.281.422-.422.282-.497.099h-2.963V73.26H12.12l-.498-.1c-.419-.28-.423-.284-.703-.703l-.1-.497.1-.498.282-.422.421-.281.498-.1h3.043V49.247h5.563l.497.099zm-8.717 0c.419.28.423.284.703.703l.1.498-.1.497-.281.422-.422.282-.498.099H9.045V73.26H3.401l-.497-.1c-.419-.28-.424-.284-.704-.703l-.099-.497.1-.498.281-.422.422-.281.497-.1h3.044V49.247h5.562l.498.099zm-8.718 0c.42.28.424.284.704.703l.099.498c-.067.337-.086.722-.803 1.2l-.497.1H.328V73.26h-5.643l-.497-.1c-.42-.28-.424-.284-.704-.703l-.099-.497.1-.498.281-.422.422-.281.497-.1h3.043V49.247H3.29l.497.099zm-8.716 0c.42.28.424.284.704.703l.099.498c-.067.337-.086.722-.803 1.2l-.497.1H-8.39V73.26h-5.642l-.498-.1c-.418-.28-.423-.284-.703-.703l-.099-.497.099-.498.282-.422.421-.281.498-.1h3.042V49.247h5.564l.497.099zm-17.434 0c.418.28.423.284.703.703l.1.498-.1.497-.282.422-.421.282-.498.099h-2.962V73.26h-5.644l-.497-.1c-.42-.28-.424-.284-.704-.703l-.099-.497.1-.498.281-.422.422-.281.497-.1h3.044V49.247h5.562l.498.099zm8.717 0c.419.28.424.284.704.703l.098.498-.098.497-.282.422-.422.282-.497.099h-2.964V73.26h-5.642l-.498-.1c-.419-.28-.424-.284-.703-.703l-.1-.497.1-.498.281-.422.422-.281.498-.1h3.042V49.247h5.564l.497.099z" mask="url(#b)"/>
    </g>
</svg>
