<svg xmlns="http://www.w3.org/2000/svg" xmlns:xlink="http://www.w3.org/1999/xlink" width="120" height="120" viewBox="0 0 120 120">
    <defs>
        <path id="a" d="M80.112 72.554L91.018 83.46 89.18 85.3 78.782 74.9a247.94 247.94 0 0 1-3.172 5.356 341.217 341.217 0 0 1-9.318 14.423 338.017 338.017 0 0 1-3.07 4.437c-.558.791-.956 1.349-1.17 1.645l-1.055 1.459-1.053-1.46c-.214-.298-.613-.858-1.17-1.65a343.177 343.177 0 0 1-3.07-4.451 345.927 345.927 0 0 1-9.316-14.453 250.422 250.422 0 0 1-3.217-5.44L32.638 85.298 30.8 83.46l11.043-11.043a198.94 198.94 0 0 1-.02-.036C36 61.915 32.7 53.778 32.7 48.625c0-5.62 1.682-10.85 4.576-15.23L30.8 26.919l1.838-1.838 6.19 6.19c5.185-6.442 13.19-10.571 22.17-10.571 8.935 0 16.905 4.086 22.093 10.47l6.089-6.09 1.838 1.84-6.366 6.366a27.53 27.53 0 0 1 4.648 15.34c0 5.176-3.275 13.286-9.055 23.687l-.133.24zm-3.235.442L65.369 61.49c-1.422.42-2.93.646-4.49.646-1.543 0-3.035-.221-4.444-.633L45.076 72.861a244.172 244.172 0 0 0 3.534 5.996A343.374 343.374 0 0 0 57.856 93.2 340.59 340.59 0 0 0 61 97.756l.096-.136a335.428 335.428 0 0 0 3.047-4.403 338.663 338.663 0 0 0 9.246-14.313 241.76 241.76 0 0 0 3.488-5.908zm1.322-2.354c5.424-9.818 8.501-17.5 8.501-22.017 0-4.945-1.439-9.56-3.927-13.46l-6.962 6.962c.454 1.447.7 2.985.7 4.58 0 5.991-3.459 11.18-8.51 13.737L78.2 70.642zm3.042-37.623C76.537 27.103 69.22 23.3 60.998 23.3c-8.266 0-15.62 3.847-20.32 9.82l6.379 6.38a15.653 15.653 0 0 1 13.822-8.225c6.009 0 11.229 3.349 13.845 8.261l6.517-6.517zm-42.084 2.257a24.936 24.936 0 0 0-3.857 13.35c0 4.46 3.06 12.096 8.456 21.879l10.041-10.042c-5.07-2.548-8.546-7.75-8.546-13.757 0-1.61.25-3.163.714-4.622l-6.808-6.808zm34.517 8.987L62.748 55.19l3.297 3.297c4.629-1.969 7.865-6.504 7.865-11.78 0-.836-.08-1.653-.236-2.444zm-.891-2.785c-2.033-4.479-6.596-7.603-11.904-7.603-5.291 0-9.842 3.106-11.883 7.564L60.91 53.35l11.874-11.873zm-24.686 2.738c-.161.806-.246 1.638-.246 2.49 0 5.293 3.255 9.84 7.904 11.799l3.316-3.315-10.974-10.974zm10.501 15.123a13.316 13.316 0 0 0 4.613-.009l-2.302-2.302-2.31 2.31z"/>
    </defs>
    <g fill="none" fill-rule="evenodd">
        <circle cx="60" cy="60" r="60" fill="#F3F3F3"/>
        <mask id="b" fill="#fff">
            <use xlink:href="#a"/>
        </mask>
        <use fill="#00558B" fill-rule="nonzero" xlink:href="#a"/>
        <g fill="#00558B" mask="url(#b)">
            <path d="M16 18h88v86H16z"/>
        </g>
    </g>
</svg>
