<?xml version="1.0" encoding="UTF-8"?>
<svg width="120px" height="120px" viewBox="0 0 120 120" version="1.1" xmlns="http://www.w3.org/2000/svg" xmlns:xlink="http://www.w3.org/1999/xlink">
    <!-- Generator: Sketch 54.1 (76490) - https://sketchapp.com -->
    <title>icon-pickup</title>
    <desc>Created with Sketch.</desc>
    <defs>
        <circle id="path-1" cx="60" cy="60" r="60"></circle>
    </defs>
    <g id="Page-1" stroke="none" stroke-width="1" fill="none" fill-rule="evenodd">
        <g id="2019-Icons-Copy-2" transform="translate(-78.000000, -667.000000)">
            <g id="icon-pickup" transform="translate(78.000000, 667.000000)">
                <circle id="Mask" fill="#F3F3F3" cx="60" cy="60" r="60"></circle>
                <mask id="mask-2" fill="white">
                    <use xlink:href="#path-1"></use>
                </mask>
                <g id="Oval"></g>
                <path d="M97.106783,90.3532837 C97.106783,95.2915471 93.1463237,99.3 88.251578,99.3 C83.3578434,99.3 79.3963729,95.2910675 79.3963729,90.3532837 C79.3963729,85.4155945 83.3578642,81.4066828 88.251578,81.4066828 C93.146303,81.4066828 97.106783,85.4151149 97.106783,90.3532837 Z M94.506783,90.3532837 C94.506783,86.8440975 91.7033117,84.0066828 88.251578,84.0066828 C84.8007755,84.0066828 81.9963729,86.844655 81.9963729,90.3532837 C81.9963729,93.8620129 84.8007609,96.7 88.251578,96.7 C91.7033263,96.7 94.506783,93.8625704 94.506783,90.3532837 Z M91.9283143,90.3532837 C91.9283143,92.3964395 90.2865049,94.0587715 88.251578,94.0587715 C86.2177495,94.0587715 84.5748416,92.3960445 84.5748416,90.3532837 C84.5748416,88.3106109 86.2177769,86.6479113 88.251578,86.6479113 C90.2864775,86.6479113 91.9283143,88.310216 91.9283143,90.3532837 Z M89.3283143,90.3532837 C89.3283143,89.7389952 88.8432771,89.2479113 88.251578,89.2479113 C87.6607229,89.2479113 87.1748416,89.7396377 87.1748416,90.3532837 C87.1748416,90.9670368 87.660715,91.4587715 88.251578,91.4587715 C88.843285,91.4587715 89.3283143,90.9676793 89.3283143,90.3532837 Z M116.591319,90.3532837 C116.591319,95.2915102 112.630782,99.3 107.736114,99.3 C102.842364,99.3 98.8807951,95.2910514 98.8807951,90.3532837 C98.8807951,85.4156105 102.842385,81.4066828 107.736114,81.4066828 C112.630761,81.4066828 116.591319,85.4151518 116.591319,90.3532837 Z M113.991319,90.3532837 C113.991319,86.8441404 111.187776,84.0066828 107.736114,84.0066828 C104.285284,84.0066828 101.480795,86.8446831 101.480795,90.3532837 C101.480795,93.8619849 104.285269,96.7 107.736114,96.7 C111.187791,96.7 113.991319,93.8625275 113.991319,90.3532837 Z M111.412736,90.3532837 C111.412736,92.3960475 109.769941,94.0587715 107.736114,94.0587715 C105.702201,94.0587715 104.059378,92.3960748 104.059378,90.3532837 C104.059378,88.3105806 105.702229,86.6479113 107.736114,86.6479113 C109.769913,86.6479113 111.412736,88.310608 111.412736,90.3532837 Z M108.812736,90.3532837 C108.812736,89.7395966 108.326928,89.2479113 107.736114,89.2479113 C107.145194,89.2479113 106.659378,89.7395883 106.659378,90.3532837 C106.659378,90.9670862 107.145186,91.4587715 107.736114,91.4587715 C108.326936,91.4587715 108.812736,90.9670779 108.812736,90.3532837 Z M129.3,81.1902298 L129.3,92.8678074 C129.3,94.6011407 126.7,94.6011407 126.7,92.8678074 L126.7,81.1902298 C126.7,79.4568965 129.3,79.4568965 129.3,81.1902298 Z M126.7,73.4253512 L126.7,35.3 L51.5465068,35.3 L51.5465068,73.4253512 L126.7,73.4253512 Z M128,76.0253512 L50.2465068,76.0253512 C49.5285366,76.0253512 48.9465068,75.4433213 48.9465068,74.7253512 L48.9465068,34 C48.9465068,33.2820298 49.5285366,32.7 50.2465068,32.7 L128,32.7 C128.71797,32.7 129.3,33.2820298 129.3,34 L129.3,74.7253512 C129.3,75.4433213 128.71797,76.0253512 128,76.0253512 Z M129.3,74.7253512 L129.3,81.1887282 C129.3,82.9220616 126.7,82.9220616 126.7,81.1887282 L126.7,74.7253512 C126.7,72.9920178 129.3,72.9920178 129.3,74.7253512 Z M89.551578,74.7253512 L89.551578,81.1887282 C89.551578,82.9220616 86.951578,82.9220616 86.951578,81.1887282 L86.951578,74.7253512 C86.951578,72.9920178 89.551578,72.9920178 89.551578,74.7253512 Z M56.0062256,74.7253512 L56.0062256,81.1887282 C56.0062256,82.9220616 53.4062256,82.9220616 53.4062256,81.1887282 L53.4062256,74.7253512 C53.4062256,72.9920178 56.0062256,72.9920178 56.0062256,74.7253512 Z M128,83.8419708 C128.71797,83.8419708 129.3,84.4240006 129.3,85.1419708 L129.3,92.8559105 C129.3,93.5738806 128.71797,94.1559105 128,94.1559105 L120.221912,94.1559105 C119.503942,94.1559105 118.921912,93.5738806 118.921912,92.8559105 L118.921912,85.1419708 C118.921912,84.4240006 119.503942,83.8419708 120.221912,83.8419708 L128,83.8419708 Z M121.521912,86.4419708 L121.521912,91.5559105 L126.7,91.5559105 L126.7,86.4419708 L121.521912,86.4419708 Z M128,79.8887282 L128,82.4887282 L97.1737545,82.4887282 C96.3439261,82.3771241 95.9290118,81.9437908 95.9290118,81.1887282 C95.9290118,80.4336657 96.3439261,80.0003324 97.1737545,79.8887282 L128,79.8887282 Z M88.251578,82.4887282 L50,82.4887282 C48.2666667,82.4887282 48.2666667,79.8887282 50,79.8887282 L88.251578,79.8887282 C89.9849113,79.8887282 89.9849113,82.4887282 88.251578,82.4887282 Z M78.8562132,82.1023468 L70.6439991,90.4152907 C69.425841,91.6483905 67.5761912,89.8211534 68.7943493,88.5880535 L77.0065635,80.2751097 C78.2247216,79.0420098 80.0743714,80.869247 78.8562132,82.1023468 Z M31.1382887,61.3448498 C31.8562589,61.3448498 32.4382887,61.9268796 32.4382887,62.6448498 L32.4382887,65.2472388 L41.3712696,57.0966 L32.4382887,48.9459612 L32.4382887,51.5482498 C32.4382887,52.26622 31.8562589,52.8482498 31.1382887,52.8482498 L15.2206,52.8482498 L15.2206,61.3448498 L31.1382887,61.3448498 Z M13.9206,63.9448498 C13.2026298,63.9448498 12.6206,63.36282 12.6206,62.6448498 L12.6206,51.5482498 C12.6206,50.8302796 13.2026298,50.2482498 13.9206,50.2482498 L29.8382887,50.2482498 L29.8382887,46 C29.8382887,44.8702915 31.1799809,44.2782268 32.0145128,45.0396712 L44.1762241,56.1362712 C44.7412586,56.6518206 44.7412586,57.5413794 44.1762241,58.0569288 L32.0145128,69.1535288 C31.1799809,69.9149732 29.8382887,69.3229085 29.8382887,68.1932 L29.8382887,63.9448498 L13.9206,63.9448498 Z" id="Combined-Shape" fill="#00558B" fill-rule="nonzero" mask="url(#mask-2)"></path>
            </g>
        </g>
    </g>
</svg>