<?xml version="1.0" encoding="UTF-8"?>
<svg width="24px" height="24px" viewBox="0 0 24 24" version="1.1" xmlns="http://www.w3.org/2000/svg" xmlns:xlink="http://www.w3.org/1999/xlink">
    <!-- Generator: Sketch 60.1 (88133) - https://sketch.com -->
    <title>icons/general/scorecard</title>
    <desc>Created with Sketch.</desc>
    <g id="icons/general/scorecard" stroke="none" stroke-width="1" fill="none" fill-rule="evenodd">
        <g id="Icon" fill="#FFFFFF" fill-opacity="0">
            <rect id="Margin" x="0" y="0" width="24" height="24"></rect>
        </g>
        <path d="M18,2 C19.1045695,2 20,2.8954305 20,4 L20,4 L20,20 C20,21.1045695 19.1045695,22 18,22 L18,22 L6,22 C4.8954305,22 4,21.1045695 4,20 L4,20 L4,4 C4,2.8954305 4.8954305,2 6,2 L6,2 Z M18,8 L6,8 L6,20 L18,20 L18,8 Z M16.2231911,9.03530373 L17.1320536,10.8168674 L14.896,11.956 L12.4319911,16.5933329 L10.255,15.409 L8.19659326,19.052943 L6.45531564,18.0690973 L9.48188176,12.7124726 L11.613,13.871 L13.4259806,10.4622972 L16.2231911,9.03530373 Z M18,4 L6,4 L6,6 L18,6 L18,4 Z" id="Combined-Shape" fill="#575451"></path>
    </g>
</svg>