<svg xmlns="http://www.w3.org/2000/svg" xmlns:xlink="http://www.w3.org/1999/xlink" width="24" height="24" viewBox="0 0 24 24">
    <defs>
        <path id="a" d="M22 11h-4.17l3.24-3.24-1.41-1.42L15 11h-2V9l4.66-4.66-1.42-1.41L13 6.17V2h-2v4.17L7.76 2.93 6.34 4.34 11 9v2H9L4.34 6.34 2.93 7.76 6.17 11H2v2h4.17l-3.24 3.24 1.41 1.42L9 13h2v2l-4.66 4.66 1.42 1.41L11 17.83V22h2v-4.17l3.24 3.24 1.42-1.41L13 15v-2h2l4.66 4.66 1.41-1.42L17.83 13H22z"/>
    </defs>
    <g fill="none" fill-rule="evenodd">
        <path fill="#5a89ae" fill-opacity="0" d="M0 0h24v24H0z"/>
        <mask id="b" fill="#5a89ae">
            <use xlink:href="#a"/>
        </mask>
        <use fill="#5a89ae" fill-rule="nonzero" xlink:href="#a"/>
        <g fill="#5a89ae" mask="url(#b)">
            <path d="M0 0h24v24H0z"/>
        </g>
    </g>
</svg>
