<svg xmlns="http://www.w3.org/2000/svg" xmlns:xlink="http://www.w3.org/1999/xlink" width="24" height="24" viewBox="0 0 24 24">
    <defs>
        <path id="a" d="M5 9v12H1V9h4zm4 12a2 2 0 0 1-2-2V9c0-.55.22-1.05.59-1.41L14.17 1l1.06 1.06c.27.27.44.64.44 1.05l-.03.32L14.69 8H21a2 2 0 0 1 2 2v2c0 .26-.05.5-.14.73l-3.02 7.05C19.54 20.5 18.83 21 18 21H9zm0-2h9.03L21 12v-2h-8.79l1.13-5.32L9 9.03V19z"/>
    </defs>
    <g fill="none" fill-rule="evenodd">
        <path fill="none" d="M0 0h24v24H0z"/>
        <mask id="b" fill="#fff">
            <use xlink:href="#a"/>
        </mask>
        <use fill="#000" fill-rule="nonzero" xlink:href="#a"/>
        <g fill="#575451" mask="url(#b)">
            <path d="M0 0h24v24H0z"/>
        </g>
    </g>
</svg>
