<svg
                xmlns="http://www.w3.org/2000/svg"
                xmlnsXlink="http://www.w3.org/1999/xlink"
                width="24"
                height="24"
                viewBox="0 0 24 24"
              >
                <defs>
                  <path
                    id="truckA"
                    d="M18 18.5a1.5 1.5 0 1 1 0-3 1.5 1.5 0 0 1 0 3zm1.5-9l1.96 2.5H17V9.5h2.5zM6 18.5a1.5 1.5 0 1 1 0-3 1.5 1.5 0 0 1 0 3zM20 8h-3V4H3c-1.11 0-2 .89-2 2v11h2a3 3 0 0 0 6 0h6a3 3 0 0 0 6 0h2v-5l-3-4z"
                  />
                </defs>
                <g fill="none" fillRule="evenodd">
                  <path fill="none" d="M0 0h24v24H0z" />
                  <mask id="truckB" fill="#fff">
                    <use xlinkHref="#truckA" />
                  </mask>
                  <use fill="#575451" fillRule="nonzero" xlinkHref="#truckA" />
                  <g fill="#575451" mask="url(#truckB)">
                    <path d="M0 0h24v24H0z" />
                  </g>
                </g>
              </svg>