<svg
                xmlns="http://www.w3.org/2000/svg"
                xmlnsXlink="http://www.w3.org/1999/xlink"
                width="24"
                height="24"
                viewBox="0 0 24 24"
              >
                <defs>
                  <path
                    id="mapA"
                    d="M15 19l-6-2.11V5l6 2.11V19zm5.5-16h-.16L15 5.1 9 3 3.36 4.9c-.21.07-.36.25-.36.48V20.5a.5.5 0 0 0 .5.5c.05 0 .11 0 .16-.03L9 18.9l6 2.1 5.64-1.9c.21-.1.36-.25.36-.48V3.5a.5.5 0 0 0-.5-.5z"
                  />
                </defs>
                <g fill="none" fillRule="evenodd">
                  <path fill="#FFF" fillOpacity="0" d="M0 0h24v24H0z" />
                  <mask id="mapB" fill="#fff">
                    <use xlinkHref="#mapA" />
                  </mask>
                  <use fill="#000" fillRule="nonzero" xlinkHref="#mapA" />
                  <g fill="#575451" mask="url(#mapB)">
                    <path d="M-3-3h30v30H-3z" />
                  </g>
                </g>
              </svg>